<mxfile host="app.diagrams.net" modified="2023-11-23T10:58:05.024Z" agent="Mozilla/5.0 (Macintosh; Intel Mac OS X 10_15_7) AppleWebKit/537.36 (KHTML, like Gecko) Chrome/119.0.0.0 Safari/537.36" etag="2TmPFZ0mqzhuX17833Uu" version="22.1.3" type="github">
  <diagram id="Lg6smImZA1aLUTKIU7_n" name="Page-2">
    <mxGraphModel dx="755" dy="973" grid="0" gridSize="161" guides="1" tooltips="1" connect="1" arrows="1" fold="1" page="1" pageScale="1" pageWidth="827" pageHeight="1169" background="#999999" math="0" shadow="0">
      <root>
        <mxCell id="0" />
        <mxCell id="1" parent="0" />
        <mxCell id="lPDcKrbup4-54Zo53ck5-6" style="edgeStyle=orthogonalEdgeStyle;rounded=0;orthogonalLoop=1;jettySize=auto;html=1;entryX=0.5;entryY=0;entryDx=0;entryDy=0;labelBackgroundColor=none;fontColor=default;" edge="1" parent="1" target="lPDcKrbup4-54Zo53ck5-3">
          <mxGeometry relative="1" as="geometry">
            <mxPoint x="159" y="163" as="sourcePoint" />
          </mxGeometry>
        </mxCell>
        <mxCell id="lPDcKrbup4-54Zo53ck5-1" value="format string" style="shape=parallelogram;perimeter=parallelogramPerimeter;whiteSpace=wrap;html=1;fixedSize=1;labelBackgroundColor=none;" vertex="1" parent="1">
          <mxGeometry x="105" y="103" width="120" height="60" as="geometry" />
        </mxCell>
        <mxCell id="lPDcKrbup4-54Zo53ck5-2" value="" style="endArrow=none;html=1;rounded=0;labelBackgroundColor=none;fontColor=default;" edge="1" parent="1" target="lPDcKrbup4-54Zo53ck5-3">
          <mxGeometry width="50" height="50" relative="1" as="geometry">
            <mxPoint x="158.5" y="243" as="sourcePoint" />
            <mxPoint x="158.5" y="163" as="targetPoint" />
          </mxGeometry>
        </mxCell>
        <mxCell id="lPDcKrbup4-54Zo53ck5-5" value="" style="edgeStyle=orthogonalEdgeStyle;rounded=0;orthogonalLoop=1;jettySize=auto;html=1;labelBackgroundColor=none;fontColor=default;" edge="1" parent="1" target="lPDcKrbup4-54Zo53ck5-3">
          <mxGeometry relative="1" as="geometry">
            <mxPoint x="159" y="173" as="targetPoint" />
            <mxPoint x="159" y="263" as="sourcePoint" />
          </mxGeometry>
        </mxCell>
        <mxCell id="lPDcKrbup4-54Zo53ck5-3" value="start _printf" style="ellipse;whiteSpace=wrap;html=1;labelBackgroundColor=none;" vertex="1" parent="1">
          <mxGeometry x="99" y="243" width="120" height="80" as="geometry" />
        </mxCell>
        <mxCell id="lPDcKrbup4-54Zo53ck5-7" value="" style="endArrow=classic;html=1;rounded=0;labelBackgroundColor=none;fontColor=default;" edge="1" parent="1">
          <mxGeometry width="50" height="50" relative="1" as="geometry">
            <mxPoint x="158.5" y="323" as="sourcePoint" />
            <mxPoint x="159" y="373" as="targetPoint" />
          </mxGeometry>
        </mxCell>
        <mxCell id="lPDcKrbup4-54Zo53ck5-8" value="is &lt;br&gt;format == NULL ?" style="rhombus;whiteSpace=wrap;html=1;labelBackgroundColor=none;" vertex="1" parent="1">
          <mxGeometry x="89" y="373" width="140" height="90" as="geometry" />
        </mxCell>
        <mxCell id="lPDcKrbup4-54Zo53ck5-10" value="" style="endArrow=classic;html=1;rounded=0;exitX=1;exitY=0.5;exitDx=0;exitDy=0;labelBackgroundColor=none;fontColor=default;" edge="1" parent="1" source="lPDcKrbup4-54Zo53ck5-8" target="lPDcKrbup4-54Zo53ck5-11">
          <mxGeometry width="50" height="50" relative="1" as="geometry">
            <mxPoint x="219" y="423" as="sourcePoint" />
            <mxPoint x="299" y="418" as="targetPoint" />
            <Array as="points" />
          </mxGeometry>
        </mxCell>
        <mxCell id="lPDcKrbup4-54Zo53ck5-11" value="return (-1)" style="rounded=0;whiteSpace=wrap;html=1;labelBackgroundColor=none;" vertex="1" parent="1">
          <mxGeometry x="289" y="388" width="120" height="60" as="geometry" />
        </mxCell>
        <mxCell id="lPDcKrbup4-54Zo53ck5-12" value="" style="endArrow=classic;html=1;rounded=0;exitX=0.5;exitY=1;exitDx=0;exitDy=0;labelBackgroundColor=none;fontColor=default;" edge="1" parent="1" source="lPDcKrbup4-54Zo53ck5-8">
          <mxGeometry width="50" height="50" relative="1" as="geometry">
            <mxPoint x="219" y="423" as="sourcePoint" />
            <mxPoint x="159" y="503" as="targetPoint" />
          </mxGeometry>
        </mxCell>
        <mxCell id="lPDcKrbup4-54Zo53ck5-13" value="format not NULL&lt;br style=&quot;border-color: var(--border-color);&quot;&gt;&amp;amp;&amp;amp;format[i] != \0 ?" style="rhombus;whiteSpace=wrap;html=1;labelBackgroundColor=none;" vertex="1" parent="1">
          <mxGeometry x="89" y="503" width="140" height="80" as="geometry" />
        </mxCell>
        <mxCell id="lPDcKrbup4-54Zo53ck5-15" value="" style="endArrow=classic;html=1;rounded=0;exitX=1;exitY=0.5;exitDx=0;exitDy=0;labelBackgroundColor=none;fontColor=default;" edge="1" parent="1" source="lPDcKrbup4-54Zo53ck5-13" target="lPDcKrbup4-54Zo53ck5-16">
          <mxGeometry width="50" height="50" relative="1" as="geometry">
            <mxPoint x="299" y="393" as="sourcePoint" />
            <mxPoint x="289" y="543" as="targetPoint" />
          </mxGeometry>
        </mxCell>
        <mxCell id="lPDcKrbup4-54Zo53ck5-16" value="return (length)" style="rounded=0;whiteSpace=wrap;html=1;labelBackgroundColor=none;" vertex="1" parent="1">
          <mxGeometry x="289" y="513" width="120" height="60" as="geometry" />
        </mxCell>
        <mxCell id="lPDcKrbup4-54Zo53ck5-17" value="" style="endArrow=classic;html=1;rounded=0;exitX=0.5;exitY=1;exitDx=0;exitDy=0;labelBackgroundColor=none;fontColor=default;" edge="1" parent="1" source="lPDcKrbup4-54Zo53ck5-13" target="lPDcKrbup4-54Zo53ck5-18">
          <mxGeometry width="50" height="50" relative="1" as="geometry">
            <mxPoint x="239" y="543" as="sourcePoint" />
            <mxPoint x="159" y="623" as="targetPoint" />
          </mxGeometry>
        </mxCell>
        <mxCell id="lPDcKrbup4-54Zo53ck5-18" value="is &lt;br&gt;format [i] == % ?" style="rhombus;whiteSpace=wrap;html=1;labelBackgroundColor=none;" vertex="1" parent="1">
          <mxGeometry x="79" y="623" width="160" height="90" as="geometry" />
        </mxCell>
        <mxCell id="lPDcKrbup4-54Zo53ck5-19" value="" style="endArrow=classic;html=1;rounded=0;exitX=1;exitY=0.5;exitDx=0;exitDy=0;labelBackgroundColor=none;fontColor=default;" edge="1" parent="1" source="lPDcKrbup4-54Zo53ck5-18">
          <mxGeometry width="50" height="50" relative="1" as="geometry">
            <mxPoint x="249" y="793" as="sourcePoint" />
            <mxPoint x="289" y="668" as="targetPoint" />
          </mxGeometry>
        </mxCell>
        <mxCell id="lPDcKrbup4-54Zo53ck5-20" value="return (-1)" style="rounded=0;whiteSpace=wrap;html=1;labelBackgroundColor=none;" vertex="1" parent="1">
          <mxGeometry x="509" y="638" width="120" height="60" as="geometry" />
        </mxCell>
        <mxCell id="lPDcKrbup4-54Zo53ck5-21" value="is format[i + 1] == \0" style="rhombus;whiteSpace=wrap;html=1;labelBackgroundColor=none;" vertex="1" parent="1">
          <mxGeometry x="293" y="625.5" width="160" height="85" as="geometry" />
        </mxCell>
        <mxCell id="lPDcKrbup4-54Zo53ck5-22" value="" style="endArrow=classic;html=1;rounded=0;exitX=1;exitY=0.5;exitDx=0;exitDy=0;entryX=0;entryY=0.5;entryDx=0;entryDy=0;labelBackgroundColor=none;fontColor=default;" edge="1" parent="1" source="lPDcKrbup4-54Zo53ck5-21" target="lPDcKrbup4-54Zo53ck5-20">
          <mxGeometry width="50" height="50" relative="1" as="geometry">
            <mxPoint x="359" y="543" as="sourcePoint" />
            <mxPoint x="409" y="493" as="targetPoint" />
          </mxGeometry>
        </mxCell>
        <mxCell id="lPDcKrbup4-54Zo53ck5-25" value="" style="endArrow=classic;html=1;rounded=0;exitX=0.5;exitY=1;exitDx=0;exitDy=0;labelBackgroundColor=none;fontColor=default;" edge="1" parent="1" source="lPDcKrbup4-54Zo53ck5-18">
          <mxGeometry width="50" height="50" relative="1" as="geometry">
            <mxPoint x="339" y="723" as="sourcePoint" />
            <mxPoint x="159" y="753" as="targetPoint" />
            <Array as="points" />
          </mxGeometry>
        </mxCell>
        <mxCell id="lPDcKrbup4-54Zo53ck5-26" value="prints format[i] and&lt;br&gt;return (length)" style="rounded=0;whiteSpace=wrap;html=1;labelBackgroundColor=none;" vertex="1" parent="1">
          <mxGeometry x="99" y="753" width="120" height="70" as="geometry" />
        </mxCell>
        <mxCell id="lPDcKrbup4-54Zo53ck5-27" value="" style="endArrow=classic;html=1;rounded=0;labelBackgroundColor=none;fontColor=default;" edge="1" parent="1" target="lPDcKrbup4-54Zo53ck5-28">
          <mxGeometry width="50" height="50" relative="1" as="geometry">
            <mxPoint x="369" y="713" as="sourcePoint" />
            <mxPoint x="369" y="753" as="targetPoint" />
          </mxGeometry>
        </mxCell>
        <mxCell id="lPDcKrbup4-54Zo53ck5-28" value="does it match a&amp;nbsp; letter&amp;nbsp;&lt;br&gt;in selection.c ?" style="rhombus;whiteSpace=wrap;html=1;labelBackgroundColor=none;" vertex="1" parent="1">
          <mxGeometry x="299" y="748" width="140" height="95" as="geometry" />
        </mxCell>
        <mxCell id="lPDcKrbup4-54Zo53ck5-29" value="execute the associated function" style="ellipse;whiteSpace=wrap;html=1;labelBackgroundColor=none;" vertex="1" parent="1">
          <mxGeometry x="498" y="755.5" width="120" height="80" as="geometry" />
        </mxCell>
        <mxCell id="lPDcKrbup4-54Zo53ck5-30" value="print conversion then return length" style="ellipse;whiteSpace=wrap;html=1;labelBackgroundColor=none;" vertex="1" parent="1">
          <mxGeometry x="669" y="755.5" width="120" height="80" as="geometry" />
        </mxCell>
        <mxCell id="lPDcKrbup4-54Zo53ck5-31" value="" style="endArrow=none;html=1;rounded=0;labelBackgroundColor=none;fontColor=default;" edge="1" parent="1">
          <mxGeometry width="50" height="50" relative="1" as="geometry">
            <mxPoint x="369" y="843" as="sourcePoint" />
            <mxPoint x="369" y="873" as="targetPoint" />
          </mxGeometry>
        </mxCell>
        <mxCell id="lPDcKrbup4-54Zo53ck5-32" value="" style="endArrow=none;html=1;rounded=0;labelBackgroundColor=none;fontColor=default;" edge="1" parent="1">
          <mxGeometry width="50" height="50" relative="1" as="geometry">
            <mxPoint x="159" y="873" as="sourcePoint" />
            <mxPoint x="559" y="873" as="targetPoint" />
          </mxGeometry>
        </mxCell>
        <mxCell id="lPDcKrbup4-54Zo53ck5-33" value="" style="endArrow=classic;html=1;rounded=0;entryX=0.5;entryY=1;entryDx=0;entryDy=0;labelBackgroundColor=none;fontColor=default;" edge="1" parent="1" target="lPDcKrbup4-54Zo53ck5-26">
          <mxGeometry width="50" height="50" relative="1" as="geometry">
            <mxPoint x="159" y="873" as="sourcePoint" />
            <mxPoint x="319" y="603" as="targetPoint" />
          </mxGeometry>
        </mxCell>
        <mxCell id="lPDcKrbup4-54Zo53ck5-35" value="" style="endArrow=classic;html=1;rounded=0;entryX=0.5;entryY=1;entryDx=0;entryDy=0;labelBackgroundColor=none;fontColor=default;" edge="1" parent="1" target="lPDcKrbup4-54Zo53ck5-29">
          <mxGeometry width="50" height="50" relative="1" as="geometry">
            <mxPoint x="559" y="873" as="sourcePoint" />
            <mxPoint x="479" y="623" as="targetPoint" />
          </mxGeometry>
        </mxCell>
        <mxCell id="lPDcKrbup4-54Zo53ck5-36" value="" style="endArrow=classic;html=1;rounded=0;exitX=1;exitY=0.5;exitDx=0;exitDy=0;entryX=0;entryY=0.5;entryDx=0;entryDy=0;labelBackgroundColor=none;fontColor=default;" edge="1" parent="1" source="lPDcKrbup4-54Zo53ck5-29" target="lPDcKrbup4-54Zo53ck5-30">
          <mxGeometry width="50" height="50" relative="1" as="geometry">
            <mxPoint x="419" y="673" as="sourcePoint" />
            <mxPoint x="469" y="623" as="targetPoint" />
          </mxGeometry>
        </mxCell>
        <mxCell id="lPDcKrbup4-54Zo53ck5-37" value="" style="endArrow=none;html=1;rounded=0;exitX=0;exitY=0.5;exitDx=0;exitDy=0;labelBackgroundColor=none;fontColor=default;" edge="1" parent="1" source="lPDcKrbup4-54Zo53ck5-26">
          <mxGeometry width="50" height="50" relative="1" as="geometry">
            <mxPoint x="119" y="673" as="sourcePoint" />
            <mxPoint x="49" y="788" as="targetPoint" />
          </mxGeometry>
        </mxCell>
        <mxCell id="lPDcKrbup4-54Zo53ck5-38" value="" style="endArrow=classic;html=1;rounded=0;entryX=0;entryY=0.5;entryDx=0;entryDy=0;labelBackgroundColor=none;fontColor=default;" edge="1" parent="1" target="lPDcKrbup4-54Zo53ck5-13">
          <mxGeometry width="50" height="50" relative="1" as="geometry">
            <mxPoint x="49" y="785.5" as="sourcePoint" />
            <mxPoint x="89" y="545.5" as="targetPoint" />
            <Array as="points">
              <mxPoint x="49" y="543" />
            </Array>
          </mxGeometry>
        </mxCell>
        <mxCell id="lPDcKrbup4-54Zo53ck5-39" value="" style="endArrow=none;html=1;rounded=0;exitX=0.5;exitY=1;exitDx=0;exitDy=0;labelBackgroundColor=none;fontColor=default;" edge="1" parent="1" source="lPDcKrbup4-54Zo53ck5-30">
          <mxGeometry width="50" height="50" relative="1" as="geometry">
            <mxPoint x="539" y="673" as="sourcePoint" />
            <mxPoint x="729" y="903" as="targetPoint" />
          </mxGeometry>
        </mxCell>
        <mxCell id="lPDcKrbup4-54Zo53ck5-40" value="" style="endArrow=none;html=1;rounded=0;labelBackgroundColor=none;fontColor=default;" edge="1" parent="1">
          <mxGeometry width="50" height="50" relative="1" as="geometry">
            <mxPoint x="729" y="903" as="sourcePoint" />
            <mxPoint x="19" y="903" as="targetPoint" />
          </mxGeometry>
        </mxCell>
        <mxCell id="lPDcKrbup4-54Zo53ck5-41" value="" style="endArrow=classic;html=1;rounded=0;labelBackgroundColor=none;fontColor=default;" edge="1" parent="1">
          <mxGeometry width="50" height="50" relative="1" as="geometry">
            <mxPoint x="19" y="903" as="sourcePoint" />
            <mxPoint x="49" y="543" as="targetPoint" />
            <Array as="points">
              <mxPoint x="19" y="543" />
            </Array>
          </mxGeometry>
        </mxCell>
        <mxCell id="lPDcKrbup4-54Zo53ck5-43" value="yes" style="text;html=1;strokeColor=none;fillColor=none;align=center;verticalAlign=middle;whiteSpace=wrap;rounded=0;labelBackgroundColor=none;" vertex="1" parent="1">
          <mxGeometry x="229" y="388" width="60" height="30" as="geometry" />
        </mxCell>
        <mxCell id="lPDcKrbup4-54Zo53ck5-45" value="no" style="text;html=1;strokeColor=none;fillColor=none;align=center;verticalAlign=middle;whiteSpace=wrap;rounded=0;labelBackgroundColor=none;" vertex="1" parent="1">
          <mxGeometry x="109" y="463" width="60" height="30" as="geometry" />
        </mxCell>
        <mxCell id="lPDcKrbup4-54Zo53ck5-46" value="no" style="text;html=1;strokeColor=none;fillColor=none;align=center;verticalAlign=middle;whiteSpace=wrap;rounded=0;labelBackgroundColor=none;" vertex="1" parent="1">
          <mxGeometry x="219" y="513" width="60" height="30" as="geometry" />
        </mxCell>
        <mxCell id="lPDcKrbup4-54Zo53ck5-47" value="yes" style="text;html=1;strokeColor=none;fillColor=none;align=center;verticalAlign=middle;whiteSpace=wrap;rounded=0;labelBackgroundColor=none;" vertex="1" parent="1">
          <mxGeometry x="229" y="638" width="60" height="30" as="geometry" />
        </mxCell>
        <mxCell id="lPDcKrbup4-54Zo53ck5-49" value="yes" style="text;html=1;strokeColor=none;fillColor=none;align=center;verticalAlign=middle;whiteSpace=wrap;rounded=0;labelBackgroundColor=none;" vertex="1" parent="1">
          <mxGeometry x="439" y="638" width="60" height="30" as="geometry" />
        </mxCell>
        <mxCell id="lPDcKrbup4-54Zo53ck5-50" value="no" style="text;html=1;strokeColor=none;fillColor=none;align=center;verticalAlign=middle;whiteSpace=wrap;rounded=0;labelBackgroundColor=none;" vertex="1" parent="1">
          <mxGeometry x="149" y="718" width="60" height="30" as="geometry" />
        </mxCell>
        <mxCell id="lPDcKrbup4-54Zo53ck5-51" value="no" style="text;html=1;strokeColor=none;fillColor=none;align=center;verticalAlign=middle;whiteSpace=wrap;rounded=0;labelBackgroundColor=none;" vertex="1" parent="1">
          <mxGeometry x="293" y="843" width="60" height="30" as="geometry" />
        </mxCell>
        <mxCell id="lPDcKrbup4-54Zo53ck5-52" value="yes" style="text;html=1;strokeColor=none;fillColor=none;align=center;verticalAlign=middle;whiteSpace=wrap;rounded=0;labelBackgroundColor=none;" vertex="1" parent="1">
          <mxGeometry x="389" y="843" width="60" height="30" as="geometry" />
        </mxCell>
      </root>
    </mxGraphModel>
  </diagram>
</mxfile>
